<svg xmlns="http://www.w3.org/2000/svg" version="1.1" width="332.7mm" height="312.7mm" viewBox = " 0 0 1178.859237 1107.993037" >
<!-- Front--> 
<g transform="translate(22.5000185, 22.5000185) " > 
<polygon style="stroke:#000000; fill:none; stroke-width:0.90000074" points="0, 0 28.34648, 0 28.34648, 10.62993 56.69296, 10.62993 56.69296, 0 77.95282, 0 77.95282, 10.62993 99.21268, 10.62993 99.21268, 0 120.47254, 0 120.47254, 10.62993 141.73239999999998, 10.62993 141.73239999999998, 0 162.99226, 0 162.99226, 10.62993 184.25212, 10.62993 184.25212, 0 205.51198, 0 205.51198, 10.62993 226.77184, 10.62993 226.77184, 0 248.0317, 0 248.0317, 10.62993 269.29156, 10.62993 269.29156, 0 290.55142, 0 290.55142, 10.62993 311.81128, 10.62993 311.81128, 0 333.07114, 0 333.07114, 10.62993 361.41762, 10.62993 361.41762, 0 389.7641, 0 389.7641, 31.889789999999998 379.13417, 31.889789999999998 379.13417, 63.779579999999996 389.7641, 63.779579999999996 389.7641, 85.03944 379.13417, 85.03944 379.13417, 106.29929999999999 389.7641, 106.29929999999999 389.7641, 127.55915999999999 379.13417, 127.55915999999999 379.13417, 148.81902 389.7641, 148.81902 389.7641, 170.07888 379.13417, 170.07888 379.13417, 191.33873999999997 389.7641, 191.33873999999997 389.7641, 212.59859999999998 379.13417, 212.59859999999998 379.13417, 233.85845999999998 389.7641, 233.85845999999998 389.7641, 255.11831999999998 379.13417, 255.11831999999998 379.13417, 276.37818 389.7641, 276.37818 389.7641, 297.63804 379.13417, 297.63804 379.13417, 318.8979 389.7641, 318.8979 389.7641, 340.15776 379.13417, 340.15776 379.13417, 361.41762 389.7641, 361.41762 389.7641, 382.67748 379.13417, 382.67748 379.13417, 403.93734 389.7641, 403.93734 389.7641, 425.1972 379.13417, 425.1972 379.13417, 446.45706 389.7641, 446.45706 389.7641, 467.71692 379.13417, 467.71692 379.13417, 499.60671 389.7641, 499.60671 389.7641, 531.4965 361.41762, 531.4965 361.41762, 520.86657 333.07114, 520.86657 333.07114, 531.4965 311.81128, 531.4965 311.81128, 520.86657 290.55142, 520.86657 290.55142, 531.4965 269.29156, 531.4965 269.29156, 520.86657 248.0317, 520.86657 248.0317, 531.4965 226.77184, 531.4965 226.77184, 520.86657 205.51198, 520.86657 205.51198, 531.4965 184.25212, 531.4965 184.25212, 520.86657 162.99226, 520.86657 162.99226, 531.4965 141.73239999999998, 531.4965 141.73239999999998, 520.86657 120.47254, 520.86657 120.47254, 531.4965 99.21268, 531.4965 99.21268, 520.86657 77.95282, 520.86657 77.95282, 531.4965 56.69296, 531.4965 56.69296, 520.86657 28.34648, 520.86657 28.34648, 531.4965 0, 531.4965 0, 499.60671 10.62993, 499.60671 10.62993, 467.71692 0, 467.71692 0, 446.45706 10.62993, 446.45706 10.62993, 425.1972 0, 425.1972 0, 403.93734 10.62993, 403.93734 10.62993, 382.67748 0, 382.67748 0, 361.41762 10.62993, 361.41762 10.62993, 340.15776 0, 340.15776 0, 318.8979 10.62993, 318.8979 10.62993, 297.63804 0, 297.63804 0, 276.37818 10.62993, 276.37818 10.62993, 255.11831999999998 0, 255.11831999999998 0, 233.85845999999998 10.62993, 233.85845999999998 10.62993, 212.59859999999998 0, 212.59859999999998 0, 191.33873999999997 10.62993, 191.33873999999997 10.62993, 170.07888 0, 170.07888 0, 148.81902 10.62993, 148.81902 10.62993, 127.55915999999999 0, 127.55915999999999 0, 106.29929999999999 10.62993, 106.29929999999999 10.62993, 85.03944 0, 85.03944 0, 63.779579999999996 10.62993, 63.779579999999996 10.62993, 31.889789999999998 0, 31.889789999999998 "/> 
</g>
<!-- Back--> 
<g transform="translate(412.2641185, 22.5000185) " > 
<polygon style="stroke:#000000; fill:none; stroke-width:0.90000074" points="0, 0 28.34648, 0 28.34648, 10.62993 56.69296, 10.62993 56.69296, 0 77.95282, 0 77.95282, 10.62993 99.21268, 10.62993 99.21268, 0 120.47254, 0 120.47254, 10.62993 141.73239999999998, 10.62993 141.73239999999998, 0 162.99226, 0 162.99226, 10.62993 184.25212, 10.62993 184.25212, 0 205.51198, 0 205.51198, 10.62993 226.77184, 10.62993 226.77184, 0 248.0317, 0 248.0317, 10.62993 269.29156, 10.62993 269.29156, 0 290.55142, 0 290.55142, 10.62993 311.81128, 10.62993 311.81128, 0 333.07114, 0 333.07114, 10.62993 361.41762, 10.62993 361.41762, 0 389.7641, 0 389.7641, 31.889789999999998 379.13417, 31.889789999999998 379.13417, 63.779579999999996 389.7641, 63.779579999999996 389.7641, 85.03944 379.13417, 85.03944 379.13417, 106.29929999999999 389.7641, 106.29929999999999 389.7641, 127.55915999999999 379.13417, 127.55915999999999 379.13417, 148.81902 389.7641, 148.81902 389.7641, 170.07888 379.13417, 170.07888 379.13417, 191.33873999999997 389.7641, 191.33873999999997 389.7641, 212.59859999999998 379.13417, 212.59859999999998 379.13417, 233.85845999999998 389.7641, 233.85845999999998 389.7641, 255.11831999999998 379.13417, 255.11831999999998 379.13417, 276.37818 389.7641, 276.37818 389.7641, 297.63804 379.13417, 297.63804 379.13417, 318.8979 389.7641, 318.8979 389.7641, 340.15776 379.13417, 340.15776 379.13417, 361.41762 389.7641, 361.41762 389.7641, 382.67748 379.13417, 382.67748 379.13417, 403.93734 389.7641, 403.93734 389.7641, 425.1972 379.13417, 425.1972 379.13417, 446.45706 389.7641, 446.45706 389.7641, 467.71692 379.13417, 467.71692 379.13417, 499.60671 389.7641, 499.60671 389.7641, 531.4965 361.41762, 531.4965 361.41762, 520.86657 333.07114, 520.86657 333.07114, 531.4965 311.81128, 531.4965 311.81128, 520.86657 290.55142, 520.86657 290.55142, 531.4965 269.29156, 531.4965 269.29156, 520.86657 248.0317, 520.86657 248.0317, 531.4965 226.77184, 531.4965 226.77184, 520.86657 205.51198, 520.86657 205.51198, 531.4965 184.25212, 531.4965 184.25212, 520.86657 162.99226, 520.86657 162.99226, 531.4965 141.73239999999998, 531.4965 141.73239999999998, 520.86657 120.47254, 520.86657 120.47254, 531.4965 99.21268, 531.4965 99.21268, 520.86657 77.95282, 520.86657 77.95282, 531.4965 56.69296, 531.4965 56.69296, 520.86657 28.34648, 520.86657 28.34648, 531.4965 0, 531.4965 0, 499.60671 10.62993, 499.60671 10.62993, 467.71692 0, 467.71692 0, 446.45706 10.62993, 446.45706 10.62993, 425.1972 0, 425.1972 0, 403.93734 10.62993, 403.93734 10.62993, 382.67748 0, 382.67748 0, 361.41762 10.62993, 361.41762 10.62993, 340.15776 0, 340.15776 0, 318.8979 10.62993, 318.8979 10.62993, 297.63804 0, 297.63804 0, 276.37818 10.62993, 276.37818 10.62993, 255.11831999999998 0, 255.11831999999998 0, 233.85845999999998 10.62993, 233.85845999999998 10.62993, 212.59859999999998 0, 212.59859999999998 0, 191.33873999999997 10.62993, 191.33873999999997 10.62993, 170.07888 0, 170.07888 0, 148.81902 10.62993, 148.81902 10.62993, 127.55915999999999 0, 127.55915999999999 0, 106.29929999999999 10.62993, 106.29929999999999 10.62993, 85.03944 0, 85.03944 0, 63.779579999999996 10.62993, 63.779579999999996 10.62993, 31.889789999999998 0, 31.889789999999998 "/> 
</g>
<!-- Left--> 
<g transform="translate(802.0282185, 22.5000185) " > 
<polygon style="stroke:#000000; fill:none; stroke-width:0.90000074" points="10.62993, 0 30.118135, 0 30.118135, 10.62993 60.23627, 10.62993 60.23627, 0 81.49613, 0 81.49613, 10.62993 102.75599, 10.62993 102.75599, 0 124.01585, 0 124.01585, 10.62993 145.27571, 10.62993 145.27571, 0 166.53557, 0 166.53557, 10.62993 187.79542999999998, 10.62993 187.79542999999998, 0 209.05528999999999, 0 209.05528999999999, 10.62993 230.31515, 10.62993 230.31515, 0 251.57501, 0 251.57501, 10.62993 272.83487, 10.62993 272.83487, 0 294.09473, 0 294.09473, 10.62993 324.212865, 10.62993 324.212865, 0 343.70107, 0 343.70107, 31.889789999999998 354.331, 31.889789999999998 354.331, 63.779579999999996 343.70107, 63.779579999999996 343.70107, 85.03944 354.331, 85.03944 354.331, 106.29929999999999 343.70107, 106.29929999999999 343.70107, 127.55915999999999 354.331, 127.55915999999999 354.331, 148.81902 343.70107, 148.81902 343.70107, 170.07888 354.331, 170.07888 354.331, 191.33873999999997 343.70107, 191.33873999999997 343.70107, 212.59859999999998 354.331, 212.59859999999998 354.331, 233.85845999999998 343.70107, 233.85845999999998 343.70107, 255.11831999999998 354.331, 255.11831999999998 354.331, 276.37818 343.70107, 276.37818 343.70107, 297.63804 354.331, 297.63804 354.331, 318.8979 343.70107, 318.8979 343.70107, 340.15776 354.331, 340.15776 354.331, 361.41762 343.70107, 361.41762 343.70107, 382.67748 354.331, 382.67748 354.331, 403.93734 343.70107, 403.93734 343.70107, 425.1972 354.331, 425.1972 354.331, 446.45706 343.70107, 446.45706 343.70107, 467.71692 354.331, 467.71692 354.331, 499.60671 343.70107, 499.60671 343.70107, 531.4965 324.212865, 531.4965 324.212865, 520.86657 294.09473, 520.86657 294.09473, 531.4965 272.83487, 531.4965 272.83487, 520.86657 251.57501, 520.86657 251.57501, 531.4965 230.31515, 531.4965 230.31515, 520.86657 209.05528999999999, 520.86657 209.05528999999999, 531.4965 187.79542999999998, 531.4965 187.79542999999998, 520.86657 166.53557, 520.86657 166.53557, 531.4965 145.27571, 531.4965 145.27571, 520.86657 124.01585, 520.86657 124.01585, 531.4965 102.75599, 531.4965 102.75599, 520.86657 81.49613, 520.86657 81.49613, 531.4965 60.23627, 531.4965 60.23627, 520.86657 30.118135, 520.86657 30.118135, 531.4965 10.62993, 531.4965 10.62993, 499.60671 0, 499.60671 0, 467.71692 10.62993, 467.71692 10.62993, 446.45706 0, 446.45706 0, 425.1972 10.62993, 425.1972 10.62993, 403.93734 0, 403.93734 0, 382.67748 10.62993, 382.67748 10.62993, 361.41762 0, 361.41762 0, 340.15776 10.62993, 340.15776 10.62993, 318.8979 0, 318.8979 0, 297.63804 10.62993, 297.63804 10.62993, 276.37818 0, 276.37818 0, 255.11831999999998 10.62993, 255.11831999999998 10.62993, 233.85845999999998 0, 233.85845999999998 0, 212.59859999999998 10.62993, 212.59859999999998 10.62993, 191.33873999999997 0, 191.33873999999997 0, 170.07888 10.62993, 170.07888 10.62993, 148.81902 0, 148.81902 0, 127.55915999999999 10.62993, 127.55915999999999 10.62993, 106.29929999999999 0, 106.29929999999999 0, 85.03944 10.62993, 85.03944 10.62993, 63.779579999999996 0, 63.779579999999996 0, 31.889789999999998 10.62993, 31.889789999999998 "/> 
</g>
<!-- Right--> 
<g transform="translate(802.0282185, 553.9965185) " > 
<polygon style="stroke:#000000; fill:none; stroke-width:0.90000074" points="10.62993, 0 30.118135, 0 30.118135, 10.62993 60.23627, 10.62993 60.23627, 0 81.49613, 0 81.49613, 10.62993 102.75599, 10.62993 102.75599, 0 124.01585, 0 124.01585, 10.62993 145.27571, 10.62993 145.27571, 0 166.53557, 0 166.53557, 10.62993 187.79542999999998, 10.62993 187.79542999999998, 0 209.05528999999999, 0 209.05528999999999, 10.62993 230.31515, 10.62993 230.31515, 0 251.57501, 0 251.57501, 10.62993 272.83487, 10.62993 272.83487, 0 294.09473, 0 294.09473, 10.62993 324.212865, 10.62993 324.212865, 0 343.70107, 0 343.70107, 31.889789999999998 354.331, 31.889789999999998 354.331, 63.779579999999996 343.70107, 63.779579999999996 343.70107, 85.03944 354.331, 85.03944 354.331, 106.29929999999999 343.70107, 106.29929999999999 343.70107, 127.55915999999999 354.331, 127.55915999999999 354.331, 148.81902 343.70107, 148.81902 343.70107, 170.07888 354.331, 170.07888 354.331, 191.33873999999997 343.70107, 191.33873999999997 343.70107, 212.59859999999998 354.331, 212.59859999999998 354.331, 233.85845999999998 343.70107, 233.85845999999998 343.70107, 255.11831999999998 354.331, 255.11831999999998 354.331, 276.37818 343.70107, 276.37818 343.70107, 297.63804 354.331, 297.63804 354.331, 318.8979 343.70107, 318.8979 343.70107, 340.15776 354.331, 340.15776 354.331, 361.41762 343.70107, 361.41762 343.70107, 382.67748 354.331, 382.67748 354.331, 403.93734 343.70107, 403.93734 343.70107, 425.1972 354.331, 425.1972 354.331, 446.45706 343.70107, 446.45706 343.70107, 467.71692 354.331, 467.71692 354.331, 499.60671 343.70107, 499.60671 343.70107, 531.4965 324.212865, 531.4965 324.212865, 520.86657 294.09473, 520.86657 294.09473, 531.4965 272.83487, 531.4965 272.83487, 520.86657 251.57501, 520.86657 251.57501, 531.4965 230.31515, 531.4965 230.31515, 520.86657 209.05528999999999, 520.86657 209.05528999999999, 531.4965 187.79542999999998, 531.4965 187.79542999999998, 520.86657 166.53557, 520.86657 166.53557, 531.4965 145.27571, 531.4965 145.27571, 520.86657 124.01585, 520.86657 124.01585, 531.4965 102.75599, 531.4965 102.75599, 520.86657 81.49613, 520.86657 81.49613, 531.4965 60.23627, 531.4965 60.23627, 520.86657 30.118135, 520.86657 30.118135, 531.4965 10.62993, 531.4965 10.62993, 499.60671 0, 499.60671 0, 467.71692 10.62993, 467.71692 10.62993, 446.45706 0, 446.45706 0, 425.1972 10.62993, 425.1972 10.62993, 403.93734 0, 403.93734 0, 382.67748 10.62993, 382.67748 10.62993, 361.41762 0, 361.41762 0, 340.15776 10.62993, 340.15776 10.62993, 318.8979 0, 318.8979 0, 297.63804 10.62993, 297.63804 10.62993, 276.37818 0, 276.37818 0, 255.11831999999998 10.62993, 255.11831999999998 10.62993, 233.85845999999998 0, 233.85845999999998 0, 212.59859999999998 10.62993, 212.59859999999998 10.62993, 191.33873999999997 0, 191.33873999999997 0, 170.07888 10.62993, 170.07888 10.62993, 148.81902 0, 148.81902 0, 127.55915999999999 10.62993, 127.55915999999999 10.62993, 106.29929999999999 0, 106.29929999999999 0, 85.03944 10.62993, 85.03944 10.62993, 63.779579999999996 0, 63.779579999999996 0, 31.889789999999998 10.62993, 31.889789999999998 "/> 
</g>
<!-- Top--> 
<g transform="translate(22.5000185, 553.9965185) " > 
<polygon style="stroke:#000000; fill:none; stroke-width:0.90000074" points="10.62993, 10.62993 28.34648, 10.62993 28.34648, 0 56.69296, 0 56.69296, 10.62993 77.95282, 10.62993 77.95282, 0 99.21268, 0 99.21268, 10.62993 120.47254, 10.62993 120.47254, 0 141.73239999999998, 0 141.73239999999998, 10.62993 162.99226, 10.62993 162.99226, 0 184.25212, 0 184.25212, 10.62993 205.51198, 10.62993 205.51198, 0 226.77184, 0 226.77184, 10.62993 248.0317, 10.62993 248.0317, 0 269.29156, 0 269.29156, 10.62993 290.55142, 10.62993 290.55142, 0 311.81128, 0 311.81128, 10.62993 333.07114, 10.62993 333.07114, 0 361.41762, 0 361.41762, 10.62993 379.13417, 10.62993 379.13417, 30.118135 389.7641, 30.118135 389.7641, 60.23627 379.13417, 60.23627 379.13417, 81.49613 389.7641, 81.49613 389.7641, 102.75599 379.13417, 102.75599 379.13417, 124.01585 389.7641, 124.01585 389.7641, 145.27571 379.13417, 145.27571 379.13417, 166.53557 389.7641, 166.53557 389.7641, 187.79542999999998 379.13417, 187.79542999999998 379.13417, 209.05528999999999 389.7641, 209.05528999999999 389.7641, 230.31515 379.13417, 230.31515 379.13417, 251.57501 389.7641, 251.57501 389.7641, 272.83487 379.13417, 272.83487 379.13417, 294.09473 389.7641, 294.09473 389.7641, 324.212865 379.13417, 324.212865 379.13417, 343.70107 361.41762, 343.70107 361.41762, 354.331 333.07114, 354.331 333.07114, 343.70107 311.81128, 343.70107 311.81128, 354.331 290.55142, 354.331 290.55142, 343.70107 269.29156, 343.70107 269.29156, 354.331 248.0317, 354.331 248.0317, 343.70107 226.77184, 343.70107 226.77184, 354.331 205.51198, 354.331 205.51198, 343.70107 184.25212, 343.70107 184.25212, 354.331 162.99226, 354.331 162.99226, 343.70107 141.73239999999998, 343.70107 141.73239999999998, 354.331 120.47254, 354.331 120.47254, 343.70107 99.21268, 343.70107 99.21268, 354.331 77.95282, 354.331 77.95282, 343.70107 56.69296, 343.70107 56.69296, 354.331 28.34648, 354.331 28.34648, 343.70107 10.62993, 343.70107 10.62993, 324.212865 0, 324.212865 0, 294.09473 10.62993, 294.09473 10.62993, 272.83487 0, 272.83487 0, 251.57501 10.62993, 251.57501 10.62993, 230.31515 0, 230.31515 0, 209.05528999999999 10.62993, 209.05528999999999 10.62993, 187.79542999999998 0, 187.79542999999998 0, 166.53557 10.62993, 166.53557 10.62993, 145.27571 0, 145.27571 0, 124.01585 10.62993, 124.01585 10.62993, 102.75599 0, 102.75599 0, 81.49613 10.62993, 81.49613 10.62993, 60.23627 0, 60.23627 0, 30.118135 10.62993, 30.118135 "/> 
</g>
<!-- Bottom--> 
<g transform="translate(412.2641185, 553.9965185) " > 
<polygon style="stroke:#000000; fill:none; stroke-width:0.90000074" points="10.62993, 10.62993 28.34648, 10.62993 28.34648, 0 56.69296, 0 56.69296, 10.62993 77.95282, 10.62993 77.95282, 0 99.21268, 0 99.21268, 10.62993 120.47254, 10.62993 120.47254, 0 141.73239999999998, 0 141.73239999999998, 10.62993 162.99226, 10.62993 162.99226, 0 184.25212, 0 184.25212, 10.62993 205.51198, 10.62993 205.51198, 0 226.77184, 0 226.77184, 10.62993 248.0317, 10.62993 248.0317, 0 269.29156, 0 269.29156, 10.62993 290.55142, 10.62993 290.55142, 0 311.81128, 0 311.81128, 10.62993 333.07114, 10.62993 333.07114, 0 361.41762, 0 361.41762, 10.62993 379.13417, 10.62993 379.13417, 30.118135 389.7641, 30.118135 389.7641, 60.23627 379.13417, 60.23627 379.13417, 81.49613 389.7641, 81.49613 389.7641, 102.75599 379.13417, 102.75599 379.13417, 124.01585 389.7641, 124.01585 389.7641, 145.27571 379.13417, 145.27571 379.13417, 166.53557 389.7641, 166.53557 389.7641, 187.79542999999998 379.13417, 187.79542999999998 379.13417, 209.05528999999999 389.7641, 209.05528999999999 389.7641, 230.31515 379.13417, 230.31515 379.13417, 251.57501 389.7641, 251.57501 389.7641, 272.83487 379.13417, 272.83487 379.13417, 294.09473 389.7641, 294.09473 389.7641, 324.212865 379.13417, 324.212865 379.13417, 343.70107 361.41762, 343.70107 361.41762, 354.331 333.07114, 354.331 333.07114, 343.70107 311.81128, 343.70107 311.81128, 354.331 290.55142, 354.331 290.55142, 343.70107 269.29156, 343.70107 269.29156, 354.331 248.0317, 354.331 248.0317, 343.70107 226.77184, 343.70107 226.77184, 354.331 205.51198, 354.331 205.51198, 343.70107 184.25212, 343.70107 184.25212, 354.331 162.99226, 354.331 162.99226, 343.70107 141.73239999999998, 343.70107 141.73239999999998, 354.331 120.47254, 354.331 120.47254, 343.70107 99.21268, 343.70107 99.21268, 354.331 77.95282, 354.331 77.95282, 343.70107 56.69296, 343.70107 56.69296, 354.331 28.34648, 354.331 28.34648, 343.70107 10.62993, 343.70107 10.62993, 324.212865 0, 324.212865 0, 294.09473 10.62993, 294.09473 10.62993, 272.83487 0, 272.83487 0, 251.57501 10.62993, 251.57501 10.62993, 230.31515 0, 230.31515 0, 209.05528999999999 10.62993, 209.05528999999999 10.62993, 187.79542999999998 0, 187.79542999999998 0, 166.53557 10.62993, 166.53557 10.62993, 145.27571 0, 145.27571 0, 124.01585 10.62993, 124.01585 10.62993, 102.75599 0, 102.75599 0, 81.49613 10.62993, 81.49613 10.62993, 60.23627 0, 60.23627 0, 30.118135 10.62993, 30.118135 "/> 
</g></svg>